<?xml version="1.0" standalone="no"?>
<!DOCTYPE svg PUBLIC "-//W3C//DTD SVG 20010904//EN"
 "http://www.w3.org/TR/2001/REC-SVG-20010904/DTD/svg10.dtd">
<svg version="1.0" xmlns="http://www.w3.org/2000/svg"
 width="200.000000pt" height="200.000000pt" viewBox="0 0 200.000000 200.000000"
 preserveAspectRatio="xMidYMid meet">
<metadata>
Created by potrace 1.11, written by Peter Selinger 2001-2013
</metadata>
<g transform="translate(0.000000,200.000000) scale(0.100000,-0.100000)"
fill="#000000" stroke="none">
<path d="M65 1842 c-48 -31 -64 -69 -61 -143 2 -36 10 -78 18 -94 10 -19 13
-38 8 -51 -11 -28 -4 -122 10 -139 7 -9 7 -21 -1 -41 -14 -37 -13 -117 1 -144
7 -13 7 -26 1 -37 -17 -34 -19 -95 -4 -149 12 -41 13 -65 6 -102 -6 -34 -6
-62 4 -97 7 -28 10 -57 8 -65 -12 -38 -12 -88 0 -129 11 -38 11 -55 1 -96 -11
-43 -10 -67 4 -120 2 -5 -5 -27 -14 -48 -9 -21 -17 -61 -18 -90 -2 -93 46
-150 130 -153 49 -2 76 7 133 44 28 18 41 21 60 13 29 -10 111 -6 135 7 12 7
30 6 54 -3 39 -14 119 -12 146 3 12 7 30 6 55 -3 38 -14 118 -12 145 3 10 6
30 4 53 -4 37 -13 101 -11 141 4 14 5 37 4 59 -4 38 -13 111 -10 138 5 11 6
30 4 54 -4 41 -15 125 -11 145 6 9 7 19 7 33 0 32 -18 85 -22 130 -12 38 8 47
6 90 -20 86 -54 175 -45 225 23 26 36 27 138 3 186 -12 22 -15 38 -8 50 16 31
19 88 4 130 -12 36 -12 46 0 69 8 17 13 48 10 78 -3 49 -3 84 1 155 1 19 -3
51 -10 70 -7 23 -8 43 -2 60 14 37 19 113 9 148 -6 21 -5 43 5 72 14 41 12
108 -5 139 -5 7 -2 27 7 43 11 22 13 48 9 94 -4 44 -2 77 8 105 44 123 -13
229 -123 229 -43 0 -122 -31 -142 -55 -8 -10 -18 -11 -36 -4 -35 13 -82 11
-128 -6 -35 -12 -42 -12 -76 6 -49 26 -97 30 -146 13 -33 -12 -44 -12 -74 0
-38 15 -108 13 -138 -3 -13 -7 -32 -6 -63 3 -48 14 -108 13 -138 -4 -14 -7
-31 -6 -58 4 -41 14 -113 12 -143 -4 -13 -7 -28 -6 -47 1 -36 14 -124 15 -150
1 -16 -9 -29 -7 -62 9 -42 20 -136 25 -147 8 -2 -4 -26 6 -53 22 -64 40 -152
50 -196 21z"/>
</g>
</svg>
